<?xml version="1.0" encoding="UTF-8"?>
<!-- Generator: visioncortex VTracer 1.0.0-alpha.3 -->
<svg xmlns="http://www.w3.org/2000/svg" version="1.1" width="1024" height="571" viewBox="0 0 1024 571" role="img" aria-labelledby="title desc">
<title id="title">갈래</title>
<desc id="desc">제공 레퍼런스를 VTracer spline path로 재현한 갈래 워드마크</desc>
<path d="M408,43c8.16-2.51,18.01-1.2,23,6c3.31,3.09,5.01,6.01,7,10c5.63,5.63,3.04,37.95,3,47c8.54-.07,45.53-2.93,49,4h1c4.3,1.43,9,6.67,9,11c.99,5.71,1.1,11.21,1,17c-.56,5.37-7.56,12.19-13,14c-15.7,2.06-32.17,1.08-48,1c.15,19.23,.98,36.44-3,55c-.33,0-.67,0-1,0c-3.7,11.11-23.61,16.1-33.66,11.88c-4.73-1.98-8.01-7-12.34-9.88c-1-.33-2-.67-3-1c-.33-1.67-.67-3.33-1-5c-4.54-6.81-2.1-25.43-2-34c-.04-13.23-2.3-104.7,2-109c5.18-5.18,2.28-11.09,11-14c3.95-3.95,5.46-4.38,11-4ZM166,50c5.98-5.98,95.76-3.29,110.62-3.27c3.83,0,6.48-.63,9.38,2.27c11.92-.2,51,12.36,51,26c3.5,3.5,4.49,8.36,6,13c5.6,15.3,3.11,33.33,1,49c-.34,7.87-2.76,9.53-6,16c-.72,5.22-3.86,8.4-6,13c-.33,0-.67,0-1,0c-2,2-4,4-6,6c-.33,5.85-14.59,18-20,18c-4.54,4.54-17.09,11.97-22.98,14.66c-3.86,1.75-4.27-.41-8.02,3.34c-3.17,3.17-7.95,2.65-12,4c-7.25,.82-14.83,6-22,6c-6.06,3.64-16.06,4.12-23,4c-15.46,4.01-29.88,5.21-46,5c-1.26-2.52-2.51-2.88-5-4c0-.33,0-.67,0-1c-17.37-5.79-15.34-26.03-5-38c4.68-9.36,35.41-6.76,45-8c4.73-.92,9.13-2.14,14-2c4.55-2.44,8.92-3.19,14-4h1c4.95-4.95,19.84-10.81,27-12c21.41-6.19,49.85-49.37,20-62c-27.4,.09-54.8,.16-82.2,.19c-8.81,.01-22.48,1.88-30.8-.19c-2.28-.57-3.96-1.93-5-4h-2c-9.13,0-11.04-18.87-9-25c0-5.84,7.46-15.15,13-17ZM731,92c5.66-.15,11.99-1.15,17,2c1.95,3.89,8.48,4.51,11,9c9.17,16.35,4.04,79.6,4,101c8.98,1.9,18.85,1.07,28,1c-.03-13.25-2.66-91.34,3-97c1.77-5.3,8.53-12.44,14-14c.33-1,.67-2,1-3c10.22-.34,12.83,.94,22,4c0,.33,0,.67,0,1c5.9,1.86,6.13,3.38,8,9c6.09,6.09,4.26,12.34,4.27,20.41c.02,58.51,.02,117.01,0,175.52c-.01,20.71,3.34,54.79-.17,73.87c-.92,5.03-4.46,9.8-8.1,13.2c-1.35,3.23-1.66,3.89-5,5c-4.87,4.78-12.7,3.21-19,3c0-.33,0-.67,0-1c-6.06,0-8-2.77-12-7c-.33,0-.67,0-1,0c-1.15-2.47-2.05-4.05-4-6c-8.67-17.33-4.07-106.75-4-132c-8.67,0-17.33,0-26,0c.04,30.33,.08,60.66,.09,90.99c.01,11.15,2.16,27.44-1.01,37.94C761.97,382.6,757.16,390,753,390c-5.91,8.86-26.9,10.21-32,0c-9.69,0-9.38-19.66-9.38-25.95c-.02-64.09,.14-128.18,.18-192.26c.01-16.19-3.26-48.29,1.05-62.75c1-3.36,4.33-6.91,6.15-10.04c2.33-4.66,7.01-6.54,12-7ZM543,99c14.36-4.01,85.01-2.66,99,2c4.94,3.04,8.7,.06,12,5c10.76,3.59,14.28,16.64,21,20c2.84,5.28,7.33,14.68,8.51,20.43c2.03,9.95,2.49,58.58-1.51,66.57c-1.12,3.8-4.71,12.35-8,14c-.62,5.62-7.2,10.2-11,14c-2.29,6.88-16.25,9.9-23,11c-16.43-.27-33.35,1.08-50,1c-6.59,1.59-6.59,1.59-8,3c-1.34,1.62-6.22,6.14-7,8c-1.83,4.39-.7,48.9,1,54c1.7,3.29,2.36,6.36,5,9c4.75,.87,4.75,.87,7,2h45c9.34,0,19.26-4.21,29-5c5.53-.16,19.35-.3,22,5c10.13,11.82,10.85,17.44,6,32c-1.32,4.57-2.43,5.68-7,7c-4.58,1.53-8.07,3.33-13,4c-18.75,9.37-116.76,11.48-127-9c-4.11-5.19-11.18-9.62-13-16c-13.94-13.94-10.16-47.43-10-66c-.12-7.55-1.86-19.45,2-26c0-4.25-.2-7.8,3-11c1.33-3.98,3.68-6.67,5-11c0-4,4.96-7.97,8-10c1.94-5.81,10.37-10.3,16-10c4.52-1.17,11.17-3.96,15.47-4.23c13.64-.83,43.45,4.78,54.53-1.77c11.22-10.15,7.07-35.82,7-50c-1.91-4.31-4.27-8.42-9-10c-22.73-7.58-54.95,5.26-78-2c-4.27,0-4.94-.38-8-3c-12.58,0-11.15-26.78-5-34c2.28-3.06,3.31-4.77,7-6c0-.33,0-.67,0-1c1.67-.67,3.33-1.33,5-2ZM394,237c5.42-.25,21.56,3.13,24,8h2c7.76,2.07,9.71,6.42,13,13l2,4c2.14,2.14,2.43,3.13,3,6c.67,.33,1.33,.67,2,1c-.25,10.79,1.09,21.99,1,33c-.33,0-.67,0-1,0v1c0,2.67,0,5.33,0,8c-3.75,1.88-7.89,19-15,19c-1.35,4.05-6.74,7-11,7c-4.06,.47-7.47,.88-11,3c-9.39,5.35-88.51,2.06-105,2c-13.94,4.02-32.24-.36-46.84,.77c-2.59,.2-4.87,2.23-7.16,2.23c-1.41,4.22-3,6.37-3,11v2c2.53,3,4.93,4.92,8.87,5.61c19.18,3.37,43.77,.49,63.5,.48c47.21-.01,94.42-.05,141.63-.09c.33,.67,.67,1.33,1,2c11.14,3.71,20.28,26.6,9,34c-2.93,8.78-13.3,10.32-21.27,10.22c-45.98-.57-92.02-.08-138-.08c-23.88-.01-48.83,1.47-72.45-1.2c-3.73-.42-7.27-2.39-11.28-2.94c-3.87-.65-8.06-1.12-10-5c-5.7-2.85-13.79-7.36-16-14c0-.92-3.49-7.31-4-9c-4.3-4.3-1.24-7.14-3-11c-5.9-12.97-1.86-39.25,9-49c4.34-8.68,19.06-14.01,28-15c3.75,0,6.06-2.01,9.71-2.24c24.26-1.54,49.76,.12,74.15,.19c22.85,.07,50.89,3.23,73.14-.95c5.96-4.57,4.29-14.65-1-19c-2.02-.63-4.07-.95-6.17-1.08c-40.77-2.39-83.23,.09-124.17,.14c-13.68,.01-31.6,2.26-44.78-.45c-26.26-5.39-22.76-40.53-3.88-41.61h4c0-.33,0-.67,0-1c62.33,0,124.67,0,187,0Zm528,60c3.33-6.66,26.87-6.5,33-3l7,1c4.87,.77,6.61,2.61,10,6c6.02,2.01,7.45,5.89,10,11h1c2.99,1.49,5,4.75,5,8c2.98,2.98,4,5.8,4,10c4.36,15.35-2.77,45.43-15,56c-2.15,1.07-5,5.68-5,8c-1.94,5.83-10.47,16.23-16,19c-6.86,6.53-12.51,14.89-19.85,20.99c-1.86,1.54-4.73,.89-6.15,2.01c-1.16,.92-1.75,4.18-3,5c-2.76,1.8-11.45,3.61-15,4c-2.97,1.65-5.66,2.44-9,3c0,.33,0,.67,0,1c-9.38,4.69-17.1,5.24-28,5c-.33,.67-.67,1.33-1,2c-16.73,.09-77.85-.52-90-8c-25.19-8.4-78.38-8.44-105.85-7.07c-11.29,.56-21.26,3.18-33.15,3.07c-6.79,4.26-38.59,3.17-42,10c-6.55-.13-11.62,.76-18,2c-5.08,.59-8.45,1.73-13,4c-5.74,5.1-23.94,7.83-32,10c-5.39,.74-9.21,2.6-14,5c-6.88,3.7-43.67,17-50,17c-7.94,.92-13.4,4.27-20.47,6.86c-9.36,3.44-19.82,5.53-29.53,8.14c-2.97,1.65-5.66,2.44-9,3c-.33,.67-.67,1.33-1,2c-13.05-.59-26.41,9.62-40,9h-4c-4.21,1.13-8.8,.8-12,4c-5.36,3.17-21.49,5.15-28,5c-6.59,2.03-13.41-.03-20,2c-29.65,8.3-115.51,13.5-144,4c-6.81,0-19.27-1.6-25-5c-2.25,0-2.25,0-6-2c-4.39-.77-17.16-3.31-19-7c-1,0-2,0-3,0c-1.11-2.22-8.08-5.07-11-9c-4.7-1.85-6.61-5.61-10-9c-8-7.27-12.24-32.76-4-41c.9-6.29,9.6-20.2,15-22l5-5c2.31-4.62,13.01-13.34,18-15c0-.67,0-1.33,0-2c6.63-2.21,10.61-9,18-10h1c2.19-4.37,4.38-4.4,9-5c2.22-1.11,4.04-2.49,6-4c3.05-.98,4.95-.98,8,0c1.89,9.12-.93,11.06-10,13c-2.82,3.71-9.47,10-14,10c-3.13,6.26-17.28,12.13-21.83,18.19c-3.46,4.61-7.08,15.27-12.17,17.81c-.33,1.67-.67,3.33-1,5c-.33,0-.67,0-1,0c.25,4.57-1.95,7.32-2.15,11.53C107.68,479.1,109,482.4,109,486l2,4c5.31,2.06,3.56,4.56,7,8c2.64,.88,6.98,5,9,5c7.51-.33,13.46,4.38,21,6c8.73,1.91,21.26,5,30,5c16.64-.29,33.34,1.82,50.17,1.13c22.56-.94,45.23-5.52,67.83-5.13c8.91-2.74,30.94-7.17,40-7c3.97-3.97,38.42-10.3,45-10c4.65-1.55,9.14-2.35,14-3h2c0-.33,0-.67,0-1c15.18-2.53,29.99-11.27,45-13c6.52-2.07,13.75-4.32,20-7c2.96-2.96,2.96-2.96,12-4c3.86,0,8.7-2.5,13-3c3.71-3.71,19.55-9.3,25-9c11.67-2.59,21.99-8.09,34-10c0-.33,0-.67,0-1c12.56-1.37,29.42-9.74,45-11c3.48-3.48,10.34-1.13,15-4c0-.33,0-.67,0-1c46.37-7.38,105.69-14.58,152-4c7.64-.21,18.65,3.55,26,6c8.57-.29,8.57-.29,12,2c6.43-.08,15.18-1.82,20,3c19.83,0,39.23,4.94,59.45,2.94c11.87-1.17,25.49-2.84,37.01-5.97c7.13-1.94,11.95-5.24,19.54-5.97c.67,0,1.33,0,2,0c2.25-4.5-7.7-13.7-11-17c-2.79-2.65-4.77-4.31-6-8c0-1.46-.35-1.35-1.33-2.33c-4.22-4.22-10.75-13.69-12.74-19.3c-1.61-4.52-2.42-10.86-5.93-14.37c-4.19-4.19-3.6-7.33-4-13c-.13-6.05-1.49-14.78,2-20c.88-9.06,9.62-25.87,19-29c2.4-2.9,4.31-3.5,8-4ZM0,571c341.33,0,682.67,0,1024,0c0-190.33,0-380.67,0-571C682.67,0,341.33,0,0,0C0,190.33,0,380.67,0,571Z" fill="#FCFCFC"/>
<path d="M431,49c-4.99-7.2-14.84-8.51-23-6c3,0,6,0,9,0c0,.33,0,.67,0,1c5.76,.64,8.98,2.49,14,5Z" fill="#B29099"/>
<g fill="#79859A">
<path d="M417,44c0-.33,0-.67,0-1c-3,0-6,0-9,0c-5.54-.38-7.05,.05-11,4c5.52,0,11.25-3.34,20-3Z"/>
<path d="M590,253h-4c-6.57,.31-9.16,3.32-12,9c2.65-2.79,4.31-4.77,8-6c1.41-1.41,1.41-1.41,8-3Z"/>
</g>
<g fill="#061F46">
<path d="M431,49c-5.02-2.51-8.24-4.36-14-5c-8.75-.34-14.48,3-20,3c-4.52,5.42-8.24,11.89-9.52,18.71c-2.44,12.97-.58,29.24-.57,42.58c.02,30.57,.05,61.14,.09,91.71c.51,3.72,1.12,6.73,3,10c4.33,2.88,7.61,7.9,12.34,9.88c10.05,4.22,29.96-.77,33.66-11.88c0-3.07,1.99-5.08,2.23-8.16c1.19-15.12-3.13-33.25,.77-47.84c16.18,.07,33.09-1.44,49-1c5.61-2.81,8.58-8.79,13-13c.1-5.79-.01-11.29-1-17c-3.26-1.63-6.33-7.91-9-11h-1c-16.29-5.43-34.63,1.17-51-3c.07-15.52,1.6-32.73-1-48c-1.99-3.99-3.69-6.91-7-10Z"/>
<path d="M286,49H172c-17.12,8.88-17.26,14.34-17,33c2.71,3.42,3.74,7.03,7,10h2c20.95,7.66,92.14,3.04,118,3c0,.33,0,.67,0,1c29.85,12.63,1.41,55.81-20,62c-5.05,5.8-19.43,9.48-27,12h-1c-.33,1-.67,2-1,3c-4.44,0-8.69-.33-13,1c-4.87-.14-9.27,1.08-14,2c-11.49,6.81-32.92,.84-45,8c-10.34,11.97-12.37,32.21,5,38c0,.33,0,.67,0,1c15.54,4.54,35.03-1.27,51-1c5.89-3.92,15.95-3.29,23-4c7.17,0,14.75-5.18,22-6c0-.67,0-1.33,0-2c1.67,0,3.33,0,5,0c.33-.67,.67-1.33,1-2c2,0,4,0,6,0c3.75-3.75,4.16-1.59,8.02-3.34c5.89-2.69,18.44-10.12,22.98-14.66c6.04-6.04,13.37-12.66,20-18c2-2,4-4,6-6c.73-4.65,3.6-9.6,7-13c.64-4.7,2.59-12.59,6-16c2.11-15.67,4.6-33.7-1-49c-.33,0-.67,0-1,0c-.87-4.89-4.29-7.92-5-13c0-13.64-39.08-26.2-51-26Z"/>
<path d="M654,106c-7.57-2.52-18.77-2.01-25-6c-26.99-.11-54.09-.67-81.07-.24c-3.59,.06-7.08,2.24-9.93,2.24c-2.11,2.95-4.39,5.48-7,8c0-.67,0-1.33,0-2c-6.15,7.22-7.58,34,5,34c9.7,1.13,18.15,2.1,28,2c19,0,38,0,57,0c.33,1,.67,2,1,3c4.73,1.58,7.09,5.69,9,10c.67,.33,1.33,.67,2,1c.13,14.49,5.45,41.78-9,49c-11.08,6.55-40.89,.94-54.53,1.77c-4.3,.27-10.95,3.06-15.47,4.23c-3.77,1.67-12.93,6.79-14,10c-.33,0-.67,0-1,0c-3.19,3.19-5.73,6.84-9,10c-1.32,4.33-3.67,7.02-5,11c-.76,4.75-1.83,9.34-3,14v1c-.06,19.78-2.72,43.57,.14,62.91c1.3,8.82,5.12,16.88,7.86,25.09c1.82,6.38,8.89,10.81,13,16c7.21,1.97,12.23,7.51,19.89,9.2c23.71,5.24,53.31,6.04,77.58,3.86c9.99-.9,19.5-4.06,29.53-4.06c4.93-.67,8.42-2.47,13-4c1.88-3.57,3.17-5.55,7-7c4.85-14.56,4.13-20.18-6-32c-5.4-1.16-9.41-4.06-15.23-3.93c-8.66,.2-18.45,5.27-27.34,6.75c-11.29,1.89-52.7,2.91-60.43-4.82c-2.74,0-6.19-5.56-7-8c-4.12-6.18-4.02-50.11,0-57c2.84-5.68,5.43-8.69,12-9c0-.33,0-.67,0-1c18.9,.09,37.23,.08,56-2c6.07-3.03,14.47-6.82,21-9c3.8-3.8,10.38-8.38,11-14c0-1.63,6.81-16.59,8-21c.07-18.4,1.69-38.42-.8-56.61c-1.12-8.26-5.1-15.36-6.2-23.39c-6.72-3.36-10.24-16.41-21-20Z"/>
</g>
<g fill="#B7BFCD">
<path d="M172,49H286c-2.9-2.9-5.55-2.27-9.38-2.27C261.76,46.71,171.98,44.02,166,50l6-1Z"/>
<path d="M576,318c-1.7-5.1-2.83-49.61-1-54c.78-1.86,5.66-6.38,7-8c-3.69,1.23-5.35,3.21-8,6c.21,12.34-4.8,45.4,0,55l2,1Z"/>
</g>
<g fill="#4E5D78">
<path d="M387,200c-.04-30.57-.07-61.14-.09-91.71c-.01-13.34-1.87-29.61,.57-42.58c1.28-6.82,5-13.29,9.52-18.71c-8.72,2.91-5.82,8.82-11,14V200h1Z"/>
<path d="M488,152v-1c-15.91-.44-32.82,1.07-49,1c-3.9,14.59,.42,32.72-.77,47.84c-.24,3.08-2.23,5.09-2.23,8.16c.33,0,.67,0,1,0c3.98-18.56,3.15-35.77,3-55c15.83,.08,32.3,1.06,48-1Z"/>
</g>
<path d="M155,82c-.26-18.66-.12-24.12,17-33l-6,1c-5.54,1.85-13,11.16-13,17c-.17,5.32-.88,10.23,2,15Z" fill="#79859A"/>
<g fill="#B7BFCD">
<path d="M490,110c-3.47-6.93-40.46-4.07-49-4c.04-9.05,2.63-41.37-3-47c2.6,15.27,1.07,32.48,1,48c16.37,4.17,34.71-2.43,51,3Z"/>
<path d="M386,200V61c-4.3,4.3-2.04,95.77-2,109c2.63,8.62,1.06,20.92,1,30c.33,0,.67,0,1,0Z"/>
<path d="M155,82c-2.88-4.77-2.17-9.68-2-15c-2.04,6.13-.13,25,9,25c-3.26-2.97-4.29-6.58-7-10Z"/>
</g>
<path d="M343,88c-1.51-4.64-2.5-9.5-6-13c.71,5.08,4.13,8.11,5,13c.33,0,.67,0,1,0Z" fill="#4E5D78"/>
<path d="M831,96c0-.33,0-.67,0-1c-9.17-3.06-11.78-4.34-22-4c-.33,1-.67,2-1,3c10.75-1.19,13.49-1.17,23,2Z" fill="#B7BFCD"/>
<g fill="#4E5D78">
<path d="M282,96c0-.33,0-.67,0-1c-25.86,.04-97.05,4.66-118-3c1.04,2.07,2.72,3.43,5,4c8.32,2.07,21.99,.2,30.8,.19c27.4-.03,54.8-.1,82.2-.19Z"/>
<path d="M564,144c-9.85,.1-18.3-.87-28-2c3.06,2.62,3.73,3,8,3c6.48,.07,13.72,.76,20-1Z"/>
</g>
<g fill="#B7BFCD">
<path d="M729,94l2-2c-4.99,.46-9.67,2.34-12,7c3.3-2.2,6.25-3.75,10-5Z"/>
<path d="M500,121c0-4.33-4.7-9.57-9-11c2.67,3.09,5.74,9.37,9,11Z"/>
</g>
<path d="M748,94c-5.01-3.15-11.34-2.15-17-2l-2,2c6.86-.85,12.34,.18,19,0Z" fill="#79859A"/>
<path d="M748,94c-6.66,.18-12.14-.85-19,0c-3.75,1.25-6.7,2.8-10,5c-1.82,3.13-5.15,6.68-6.15,10.04c-4.31,14.46-1.04,46.56-1.05,62.75c-.04,64.08-.2,128.17-.18,192.26c0,6.29-.31,25.95,9.38,25.95c16.23,5.17,15.96,5.35,32,0c2.58-3.87,7.46-7.07,8.85-11.46c2.12-6.64,.34-19.52,.32-26.77c-.09-22.74-.13-45.47-.19-68.21c-.03-11.28-1.48-24.57,1.02-35.56c9.45-.07,19.74-.96,29,1c-.06,42.06-4.52,92.03,2,133c1.95,1.95,2.85,3.53,4,6c.33,0,.67,0,1,0c9.67,3.22,11.57,6.35,23,6l6-1c0-2.29,4.98-4.33,7-5c0-3.35,5.89-10.27,6.13-16.16c2.16-54.6,0-110.21,.01-164.9c0-32.45,3.99-70.39-2.14-101.94c-1.79-1.19-7.15-7.29-8-9c-9.51-3.17-12.25-3.19-23-2c-5.47,1.56-12.23,8.7-14,14c-4.08,30.97-1.07,65.63-1,97c-.67,0-1.33,0-2,0c-9.15,.07-19.02,.9-28-1c.04-21.4,5.17-84.65-4-101c-2.52-4.49-9.05-5.11-11-9Z" fill="#051E46"/>
<path d="M839,105c-1.87-5.62-2.1-7.14-8-9c.85,1.71,6.21,7.81,8,9Z" fill="#79859A"/>
<path d="M642,101c-13.99-4.66-84.64-6.01-99-2c29,0,58,0,87,0c0,.33,0,.67,0,1c3.98,.41,8,1,12,1Z" fill="#B7BFCD"/>
<g fill="#79859A">
<path d="M630,100c0-.33,0-.67,0-1c-29,0-58,0-87,0c-1.67,.67-3.33,1.33-5,2c0,.33,0,.67,0,1c2.85,0,6.34-2.18,9.93-2.24c26.98-.43,54.08,.13,81.07,.24h1Z"/>
<path d="M192,378c0-2.91-1.76-4.99-2.14-7.94c-1.15-9.07-1.46-24.95,.62-33.74c1.62-6.84,5.47-12.16,7.52-18.32c-10.86,9.75-14.9,36.03-9,49c1.76,3.86-1.3,6.7,3,11Z"/>
</g>
<g fill="#4E5D78">
<path d="M630,100h-1c6.23,3.99,17.43,3.48,25,6c-3.3-4.94-7.06-1.96-12-5c-4,0-8.02-.59-12-1Z"/>
<path d="M531,108c0,.67,0,1.33,0,2c2.61-2.52,4.89-5.05,7-8c-3.69,1.23-4.72,2.94-7,6Z"/>
<path d="M835,388c3.64-3.4,7.18-8.17,8.1-13.2c3.51-19.08,.16-53.16,.17-73.87c.02-58.51,.02-117.01,0-175.52c-.01-8.07,1.82-14.32-4.27-20.41c6.13,31.55,2.14,69.49,2.14,101.94c-.01,54.69,2.15,110.3-.01,164.9c-.24,5.89-6.13,12.81-6.13,16.16Z"/>
<path d="M791,205c.67,0,1.33,0,2,0c-.07-31.37-3.08-66.03,1-97c-5.66,5.66-3.03,83.75-3,97Z"/>
</g>
<path d="M682,213c4-7.99,3.54-56.62,1.51-66.57c-1.18-5.75-5.67-15.15-8.51-20.43c1.1,8.03,5.08,15.13,6.2,23.39c2.49,18.19,.87,38.21,.8,56.61v7Z" fill="#B29099"/>
<g fill="#79859A">
<path d="M338,153c3.24-6.47,5.66-8.13,6-16c-3.41,3.41-5.36,11.3-6,16Z"/>
<path d="M488,152c5.44-1.81,12.44-8.63,13-14c-4.42,4.21-7.39,10.19-13,13v1Z"/>
<path d="M622,147c-.33-1-.67-2-1-3c-19,0-38,0-57,0c-6.28,1.76-13.52,1.07-20,1c23.05,7.26,55.27-5.58,78,2Z"/>
</g>
<path d="M331,166c.33,0,.67,0,1,0c2.14-4.6,5.28-7.78,6-13c-3.4,3.4-6.27,8.35-7,13Z" fill="#B29099"/>
<path d="M624,207c14.45-7.22,9.13-34.51,9-49c-.67-.33-1.33-.67-2-1c.07,14.18,4.22,39.85-7,50Z" fill="#4E5D78"/>
<g fill="#B7BFCD">
<path d="M235,170c7.57-2.52,21.95-6.2,27-12c-7.16,1.19-22.05,7.05-27,12Z"/>
<path d="M539,223c.33,0,.67,0,1,0c1.07-3.21,10.23-8.33,14-10c-5.63-.3-14.06,4.19-16,10h1Z"/>
</g>
<path d="M220,174c4.31-1.33,8.56-1,13-1c.33-1,.67-2,1-3c-5.08,.81-9.45,1.56-14,4Z" fill="#4E5D78"/>
<path d="M386,200c-.33,0-.67,0-1,0c.06-9.08,1.63-21.38-1-30c-.1,8.57-2.54,27.19,2,34v-4Z" fill="#FDD3CD"/>
<path d="M305,190c5.41,0,19.67-12.15,20-18c-6.63,5.34-13.96,11.96-20,18Z" fill="#B29099"/>
<path d="M161,184c12.08-7.16,33.51-1.19,45-8c-9.59,1.24-40.32-1.36-45,8Z" fill="#79859A"/>
<path d="M387,200h-1v4c.33,1.67,.67,3.33,1,5c1,.33,2,.67,3,1c-1.88-3.27-2.49-6.28-3-10Z" fill="#B7BFCD"/>
<path d="M682,213v-7c-1.19,4.41-8,19.37-8,21c3.29-1.65,6.88-10.2,8-14Z" fill="#79859A"/>
<path d="M262,212c4.05-1.35,8.83-.83,12-4c-2,0-4,0-6,0c-.33,.67-.67,1.33-1,2c-1.67,0-3.33,0-5,0c0,.67,0,1.33,0,2Z" fill="#B7BFCD"/>
<g fill="#B29099">
<path d="M217,222c6.94,.12,16.94-.36,23-4c-7.05,.71-17.11,.08-23,4Z"/>
<path d="M166,223c2.49,1.12,3.74,1.48,5,4c16.12,.21,30.54-.99,46-5c-15.97-.27-35.46,5.54-51,1Z"/>
<path d="M539,223h-1c-3.04,2.03-8,6-8,10c3.27-3.16,5.81-6.81,9-10Z"/>
</g>
<path d="M394,238v-1c-62.33,0-124.67,0-187,0c0,.33,0,.67,0,1H394Z" fill="#4E5D78"/>
<path d="M418,245c-2.44-4.87-18.58-8.25-24-8v1c7.69,1.04,17.17,3.21,24,7Z" fill="#79859A"/>
<path d="M193,247c3.37-3.37,5.22-7.23,10-9c-18.88,1.08-22.38,36.22,3.88,41.61c13.18,2.71,31.1,.46,44.78,.45c40.94-.05,83.4-2.53,124.17-.14c2.1,.13,4.15,.45,6.17,1.08c-7.59-5.06-126.11-1.92-144.8-1.84c-8.64,.04-27.06,2.34-34.2-2.16c-6.03,0-10.38-8.14-12-13c-.67-.33-1.33-.67-2-1c-.11-5.62-.29-11.71,4-16Z" fill="#B7BFCD"/>
<path d="M207,238h-4c-4.78,1.77-6.63,5.63-10,9c-.78,5.8-2.13,11.11-2,17c1.62,4.86,5.97,13,12,13c16.22,2.17,33.35,1.06,49.71,1.02c27.79-.05,55.58-.13,83.37-.17c16.94-.02,34.94-2.18,50.92,3.15c0,.67,0,1.33,0,2c2.5,4.28,2.18,8.24,2,13c-1.85,.92-4.36,4-6,4c-1.55,1.99-2.92,3.09-5.51,3.37c-22.44,2.34-47.95-.17-70.69-.26c-20.63-.08-41.57-.91-62.16-.22c-7.17,.23-14.47,2.11-21.64,2.11c-5.46,3.04-12.57,4.19-18,7c-2.48,1.28-4.06,4.53-7,6c-2.05,6.16-5.9,11.48-7.52,18.32c-2.08,8.79-1.77,24.67-.62,33.74c.38,2.95,2.14,5.03,2.14,7.94c.51,1.69,4,8.08,4,9c3.51,2.81,6.23,6.57,9.55,9.18c3.05,2.39,6.67,1.27,8.45,4.82c2,1,4,2,6,3c7.21,0,16.34,3.68,24.18,4.07c42.61,2.1,86.37,.05,129.1,.07c24.03,0,52.71,3.11,76.21-.5c6.04-.93,10.86-3.79,15.51-7.64c.6-2.98,2.78-4.93,3.14-7.39c1.25-8.51-2.44-21.86-11.14-24.61c-24.43-6.11-57.48-2.06-83-2c-26.95,.04-53.89,.06-80.84,.09c-13.27,.01-27.64,1.18-40.79-.17c-5.24-.54-10.76-2.04-11.37-7.92v-2c-2.36-4.72-.22-12.26,5-14h2c0-.33,0-.67,0-1c32.54,.04,65.08,.07,97.62,.09c18.85,.01,38.69,1.3,57.38-1.09c3.53-2.12,6.94-2.53,11-3c3.5-2.63,6.78-5.59,11-7c4.08-4.93,9.02-10.17,11.6-15.97c1.63-3.68,1.21-7.38,3.4-11.03v-1c.09-9.38,.2-18.67-1-28c-2.49-2.49-2.49-2.49-4-12l-2-4c-3.49-3.49-10.96-8.91-13-13h-2c-6.83-3.79-16.31-5.96-24-7H207Z" fill="#061F46"/>
<path d="M640,252c6.75-1.1,20.71-4.12,23-11c-6.53,2.18-14.93,5.97-21,9l-2,2Z" fill="#B29099"/>
<path d="M522,258c1.17-4.66,2.24-9.25,3-14c-3.2,3.2-3,6.75-3,11v3Z" fill="#B7BFCD"/>
<path d="M433,258c-3.29-6.58-5.24-10.93-13-13c2.04,4.09,9.51,9.51,13,13Z" fill="#B29099"/>
<path d="M191,264c-.13-5.89,1.22-11.2,2-17c-4.29,4.29-4.11,10.38-4,16c.67,.33,1.33,.67,2,1Z" fill="#4E5D78"/>
<path d="M794,382c-6.52-40.97-2.06-90.94-2-133c-9.26-1.96-19.55-1.07-29-1c-2.5,10.99-1.05,24.28-1.02,35.56c.06,22.74,.1,45.47,.19,68.21c.02,7.25,1.8,20.13-.32,26.77c-1.39,4.39-6.27,7.59-8.85,11.46c4.16,0,8.97-7.4,10.08-11.07c3.17-10.5,1.02-26.79,1.01-37.94c-.01-30.33-.05-60.66-.09-90.99c8.67,0,17.33,0,26,0c-.07,25.25-4.67,114.67,4,132Z" fill="#79859A"/>
<g fill="#4E5D78">
<path d="M640,252l2-2c-18.77,2.08-37.1,2.09-56,2c0,.33,0,.67,0,1h4c16.65,.08,33.57-1.27,50-1Z"/>
<path d="M456,366c-5.51-2.76-74.66-2.35-82,0c25.52-.06,58.57-4.11,83,2l-1-2Z"/>
</g>
<path d="M522,258v-3c-3.86,6.55-2.12,18.45-2,26c.33,0,.67,0,1,0c-.07-7.06-.95-15.18,1-22v-1Z" fill="#FDD3CD"/>
<path d="M530,347c-2.74-8.21-6.56-16.27-7.86-25.09c-2.86-19.34-.2-43.13-.14-62.91c-1.95,6.82-1.07,14.94-1,22c-.33,0-.67,0-1,0c-.16,18.57-3.94,52.06,10,66Z" fill="#B7BFCD"/>
<path d="M438,268c-.57-2.87-.86-3.86-3-6c1.51,9.51,1.51,9.51,4,12l-1-6Z" fill="#79859A"/>
<path d="M574,317c-4.8-9.6,.21-42.66,0-55c-4.02,6.89-4.12,50.82,0,57v-2Z" fill="#4E5D78"/>
<path d="M440,302c.33,0,.67,0,1,0c.09-11.01-1.25-22.21-1-33c-.67-.33-1.33-.67-2-1l1,6c1.2,9.33,1.09,18.62,1,28Z" fill="#B29099"/>
<path d="M387,283c0-.67,0-1.33,0-2c-15.98-5.33-33.98-3.17-50.92-3.15c-27.79,.04-55.58,.12-83.37,.17c-16.36,.04-33.49,1.15-49.71-1.02c7.14,4.5,25.56,2.2,34.2,2.16c18.69-.08,137.21-3.22,144.8,1.84c3.88,.88,3.88,.88,5,2Z" fill="#79859A"/>
<path d="M387,283c-1.12-1.12-1.12-1.12-5-2c5.29,4.35,6.96,14.43,1,19c1.64,0,4.15-3.08,6-4c.18-4.76,.5-8.72-2-13Z" fill="#B7BFCD"/>
<g fill="#F9978B">
<path d="M955,294c-6.13-3.5-29.67-3.66-33,3c8.88-4.44,23.24-3.09,33-3Z"/>
<path d="M895,330c3.99-3.99,4.08-9.49,6.79-14.15c2.96-5.1,8.37-10.25,12.21-14.85c-9.38,3.13-18.12,19.94-19,29Z"/>
</g>
<path d="M962,295l-7-1c-9.76-.09-24.12-1.44-33,3c-3.69,.5-5.6,1.1-8,4c-3.84,4.6-9.25,9.75-12.21,14.85c-2.71,4.66-2.8,10.16-6.79,14.15c-1.9,16.27-1.9,16.27,0,23c.54,3.38,1.11,6.7,2,10c3.51,3.51,4.32,9.85,5.93,14.37c1.99,5.61,8.52,15.08,12.74,19.3c.98,.98,1.33,.87,1.33,2.33c3.92,1.57,6,3.62,6,8c3.3,3.3,13.25,12.5,11,17c-.67,0-1.33,0-2,0c-3.83,3.83-11.99,4.44-17,6c-21.61,6.73-44.55,9.01-67.31,8.13c-10.61-.41-21.01-3.31-31.69-3.13c0-.67,0-1.33,0-2h-8c-7.47,0-17.42-1.34-24-5c-24.79,.43-50.84-6.39-76.01-7.11c-27.12-.78-53.37,4.55-79.99,4.11c-9.68-.16-9.68-.16-14,2c-5.42,3.25-16.71,4-23,4c-12.37,7.14-31.27,7.99-45,12c-2.7,2.49-31.34,12-36,12c-7.52,1.61-15.32,5.01-23,7c-4.3,.5-9.14,3-13,3c-3.31,3.31-7.48,3.28-12,4c-6.25,2.68-13.48,4.93-20,7c-10.09,5.43-33.65,14.54-45,14h-2c-8.09,4.36-23.94,9-33,9c-5.95,.48-11.39,3-17,3c-6.15,3.79-40.89,9-49,9c-12.96,3.63-31.53,4.26-45,4c0,.33,0,.67,0,1s0,.67,0,1c-17.75,.05-114.59,.81-121-12c-1.55,0-1.95-.95-3-2c-2.02,0-6.36-4.12-9-5c-2.74,0-6.19-5.56-7-8l-2-4c-3.22-4.83-2.14-10.42-2-16c.75-4.52,1.72-7.72,5-11c6.37-12.75,19.38-31.13,34-36c3.4-3.4,9.46-8.49,14-10c0-1.51,7.26-5.65,9-7c-.33-1.67-.67-3.33-1-5c-5.41,.62-8.18,3.39-13,5c-2.27,.76-5.82,3-8,3h-1c-3,5.99-9.6,4.95-14,10c-2.22,2.46-18.96,15.48-22,17l-5,5c-2.18,3.77-5.22,9.74-9,11c-.82,4.91-1.67,8.11-6,11c-1.24,8.67-3.79,18.8-1.38,27.4C89.51,493.55,94,501.73,94,504c3.39,3.39,5.3,7.15,10,9c5.87,1.96,9.99,4.99,14,9c5.48,.63,15.04,3.04,19,7c3.75,2,3.75,2,6,2c9.08-.17,17.62,4.39,25,4c0,.33,0,.67,0,1c22.06,0,44.19,3.08,66.44,2.08C260,536.94,286.6,531.51,312,532c13.66-4.55,45.83-11.47,60-11h4c3.41-.79,6.69-1.87,10-3c5.82-3.88,19.96-8.32,27-8c5.79-2.89,6.14-3.25,13-3c9.71-2.61,20.17-4.7,29.53-8.14c7.07-2.59,12.53-5.94,20.47-6.86c0-.33,0-.67,0-1c3.49-1.11,6.77-2.26,10-4c0-.33,0-.67,0-1c6.92-2.31,18.91-8.37,26-8c13.92-6.96,33.14-13.64,48-16c3.43-1,3.43-1,12-2c4.55-2.27,7.92-3.41,13-4c5.72-5.72,50.4-12.18,60-12c11.89,.11,21.86-2.51,33.15-3.07c27.47-1.37,80.66-1.33,105.85,7.07c5.35-.08,22.47-.53,26,3c25.81-.18,52.31-.44,78,0h4c6.37-2.97,12.38-6.42,20-6c3.55-.39,12.24-2.2,15-4c1.25-.82,1.84-4.08,3-5c1.42-1.12,4.29-.47,6.15-2.01c7.34-6.1,12.99-14.46,19.85-20.99c0-1.35,8.3-11.42,10-13c3.27-6.33,4.82-11.88,11-16c3.56-6.89,8.35-14.45,10.94-21.46c1.38-3.76,1.3-7.66,3.06-11.54c.1-8.07,.03-15.99-1-24c-1.12-2.25-1.12-2.25-2-7c-3.98-1.99-4.33-3.76-5-8h-1c-3.02-2.01-8.66-7.81-10-11c-4.14-1.38-7.04-2.75-10-6Zm-36,31c0-5.69,21.5-9.5,26-5c2.68,2.68,9,4.51,9,9c9.78,9.78,1.8,21.3-4,30c-3.29,6.58-26.18,7.45-29-1c-2.96-2.81-5.44-5.18-7-9c-.67-.33-1.33-.67-2-1c-.11-7.35-1.63-20.12,7-23Z" fill="#FB5846"/>
<path d="M972,301c-3.39-3.39-5.13-5.23-10-6c2.96,3.25,5.86,4.62,10,6Z" fill="#F9978B"/>
<path d="M223,305c7.17,0,14.47-1.88,21.64-2.11c20.59-.69,41.53,.14,62.16,.22c22.74,.09,48.25,2.6,70.69,.26c2.59-.28,3.96-1.38,5.51-3.37c-22.25,4.18-50.29,1.02-73.14,.95c-24.39-.07-49.89-1.73-74.15-.19c-3.65,.23-5.96,2.24-9.71,2.24l-3,2Z" fill="#4E5D78"/>
<path d="M982,312c-2.55-5.11-3.98-8.99-10-11c1.34,3.19,6.98,8.99,10,11Z" fill="#F9978B"/>
<path d="M223,305l3-2c-8.94,.99-23.66,6.32-28,15c2.94-1.47,4.52-4.72,7-6c5.43-2.81,12.54-3.96,18-7Z" fill="#79859A"/>
<path d="M425,330c7.11,0,11.25-17.12,15-19c0-2.67,0-5.33,0-8c-2.19,3.65-1.77,7.35-3.4,11.03c-2.58,5.8-7.52,11.04-11.6,15.97Z" fill="#B29099"/>
<g fill="#FDD3CD">
<path d="M988,320c0-3.25-2.01-6.51-5-8c.67,4.24,1.02,6.01,5,8Z"/>
<path d="M952,321c-4.5-4.5-26-.69-26,5c-4,4.88-4,4.88-4,6c16.05-8.03,7.43-11.71,30-11Z"/>
<path d="M510,455l2-2c-5.45-.3-21.29,5.29-25,9c7.68-1.99,15.48-5.39,23-7Z"/>
<path d="M362,499c6.35-3.18,13.19-2.73,19-6c-6.58-.3-41.03,6.03-45,10l9-1c5.61,0,11.05-2.52,17-3Z"/>
<path d="M296,511v-1c-22.6-.39-45.27,4.19-67.83,5.13c-16.83,.69-33.53-1.42-50.17-1.13c20.91,5.85,51.05,2.06,73,2c0-.33,0-.67,0-1c13.47,.26,32.04-.37,45-4Z"/>
</g>
<path d="M576,318l-2-1v2c.81,2.44,4.26,8,7,8c-2.64-2.64-3.3-5.71-5-9Z" fill="#B29099"/>
<path d="M992,330c0-4.2-1.02-7.02-4-10c.88,4.75,.88,4.75,2,7l2,3Z" fill="#FDD3CD"/>
<path d="M961,330c0-4.49-6.32-6.32-9-9c-22.57-.71-13.95,2.97-30,11c-1.07,6.03-1.1,11.89-1,18c1.56,3.82,4.04,6.19,7,9c4.61,1.92,9.93,4,15,4c20.37-10.18,22.86-8,18-33Z" fill="#FCFCFC"/>
<path d="M633,330c7.03,.2,23.13-2.48,29-6c-9.74,.79-19.66,5-29,5v1Z" fill="#B7BFCD"/>
<path d="M684,329c-2.65-5.3-16.47-5.16-22-5c-5.87,3.52-21.97,6.2-29,6c-13.33,.06-32.39,2.58-45-1c-2.25-1.13-2.25-1.13-7-2c7.73,7.73,49.14,6.71,60.43,4.82c8.89-1.48,18.68-6.55,27.34-6.75c5.82-.13,9.83,2.77,15.23,3.93Z" fill="#79859A"/>
<g fill="#F9978B">
<path d="M922,332c0-1.12,0-1.12,4-6c-8.63,2.88-7.11,15.65-7,23c.67,.33,1.33,.67,2,1c-.1-6.11-.07-11.97,1-18Z"/>
<path d="M992,330l-2-3c1.03,8.01,1.1,15.93,1,24c.33,0,.67,0,1,0c0-7,0-14,0-21Z"/>
<path d="M895,353c-1.9-6.73-1.9-6.73,0-23c-3.49,5.22-2.13,13.95-2,20l2,3Z"/>
</g>
<g fill="#FDD3CD">
<path d="M633,329H588c12.61,3.58,31.67,1.06,45,1v-1Z"/>
<path d="M160,413c9.07-1.94,11.89-3.88,10-13c-3.05-.98-4.95-.98-8,0c2,0,4,0,6,0c0,.33,0,.67,0,1c.33,1.67,.67,3.33,1,5c-1.74,1.35-9,5.49-9,7Z"/>
</g>
<path d="M414,337c4.26,0,9.65-2.95,11-7c-4.22,1.41-7.5,4.37-11,7Z" fill="#B7BFCD"/>
<g fill="#FDD3CD">
<path d="M957,360c5.8-8.7,13.78-20.22,4-30c4.86,25,2.37,22.82-18,33c5.28,.29,8.93-2.16,14-3Z"/>
<path d="M977,386c12.23-10.57,19.36-40.65,15-56c0,7,0,14,0,21c-.33,0-.67,0-1,0c-1.76,3.88-1.68,7.78-3.06,11.54c-2.59,7.01-7.38,14.57-10.94,21.46v2Z"/>
</g>
<path d="M298,342c16.49,.06,95.61,3.35,105-2c-18.69,2.39-38.53,1.1-57.38,1.09c-32.54-.02-65.08-.05-97.62-.09c0,.33,0,.67,0,1h50Z" fill="#B7BFCD"/>
<path d="M244,345l2-3c-5.22,1.74-7.36,9.28-5,14c0-4.63,1.59-6.78,3-11Z" fill="#79859A"/>
<g fill="#FDD3CD">
<path d="M248,342h-2l-2,3c2.29,0,4.57-2.03,7.16-2.23c14.6-1.13,32.9,3.25,46.84-.77H248Z"/>
<path d="M895,353l-2-3c.4,5.67-.19,8.81,4,13c-.89-3.3-1.46-6.62-2-10Z"/>
<path d="M155,406l1-2c-4.62,.6-6.81,.63-9,5c2.18,0,5.73-2.24,8-3Z"/>
</g>
<path d="M456,366c-.33-.67-.67-1.33-1-2c-47.21,.04-94.42,.08-141.63,.09c-19.73,.01-44.32,2.89-63.5-.48c-3.94-.69-6.34-2.61-8.87-5.61c.61,5.88,6.13,7.38,11.37,7.92c13.15,1.35,27.52,.18,40.79,.17c26.95-.03,53.89-.05,80.84-.09c7.34-2.35,76.49-2.76,82,0Z" fill="#79859A"/>
<g fill="#F9978B">
<path d="M943,363c-5.07,0-10.39-2.08-15-4c2.82,8.45,25.71,7.58,29,1c-5.07,.84-8.72,3.29-14,3Z"/>
<path d="M784,428c-7.35-2.45-18.36-6.21-26-6c-9.31,2.85-23.55-1.3-33.44-2.02c-15.49-1.12-86.32-1.24-96.56,5.02c26.62,.44,52.87-4.89,79.99-4.11c25.17,.72,51.22,7.54,76.01,7.11Z"/>
</g>
<path d="M683,368c4.57-1.32,5.68-2.43,7-7c-3.83,1.45-5.12,3.43-7,7Z" fill="#B7BFCD"/>
<g fill="#79859A">
<path d="M670,372c-10.03,0-19.54,3.16-29.53,4.06c-24.27,2.18-53.87,1.38-77.58-3.86c-7.66-1.69-12.68-7.23-19.89-9.2c10.24,20.48,108.25,18.37,127,9Z"/>
<path d="M465,400c11.28-7.4,2.14-30.29-9-34l1,2c8.7,2.75,12.39,16.1,11.14,24.61c-.36,2.46-2.54,4.41-3.14,7.39Z"/>
</g>
<g fill="#F9978B">
<path d="M977,386v-2c-6.18,4.12-7.73,9.67-11,16c5-5,5-5,6-6c0-2.32,2.85-6.93,5-8Z"/>
<path d="M148,509c-6.85,0-11.56-2.93-18-4c6.41,12.81,103.25,12.05,121,12c0-.33,0-.67,0-1c-21.95,.06-52.09,3.85-73-2c-8.74,0-21.27-3.09-30-5Z"/>
</g>
<g fill="#79859A">
<path d="M214,401c-1.78-3.55-5.4-2.43-8.45-4.82c-3.32-2.61-6.04-6.37-9.55-9.18c2.21,6.64,10.3,11.15,16,14h2Z"/>
<path d="M822,394c-11.43,.35-13.33-2.78-23-6c4,4.23,5.94,7,12,7c3.83,.07,7.33,.18,11-1Z"/>
<path d="M830,393c3.34-1.11,3.65-1.77,5-5c-2.02,.67-7,2.71-7,5h2Z"/>
</g>
<path d="M753,390c-16.04,5.35-15.77,5.17-32,0c5.1,10.21,26.09,8.86,32,0Z" fill="#B29099"/>
<path d="M830,393h-2l-6,1c-3.67,1.18-7.17,1.07-11,1c0,.33,0,.67,0,1c6.3,.21,14.13,1.78,19-3Z" fill="#B7BFCD"/>
<path d="M956,413c5.53-2.77,14.06-13.17,16-19c-1,1-1,1-6,6c-1.7,1.58-10,11.65-10,13Z" fill="#FDD3CD"/>
<g fill="#F9978B">
<path d="M923,407c0-4.38-2.08-6.43-6-8c1.23,3.69,3.21,5.35,6,8Z"/>
<path d="M168,401c0-.33,0-.67,0-1c-2,0-4,0-6,0c-1.96,1.51-3.78,2.89-6,4l-1,2c4.82-1.61,7.59-4.38,13-5Z"/>
<path d="M486,487c4.81-1.03,7.85-3.29,13-3c1.77-3.54,9.1-2.26,13-6c-7.09-.37-19.08,5.69-26,8c0,.33,0,.67,0,1Z"/>
</g>
<path d="M222,406c4.01,.55,7.55,2.52,11.28,2.94c23.62,2.67,48.57,1.19,72.45,1.2c45.98,0,92.02-.49,138,.08c7.97,.1,18.34-1.44,21.27-10.22c-4.65,3.85-9.47,6.71-15.51,7.64c-23.5,3.61-52.18,.5-76.21,.5c-42.73-.02-86.49,2.03-129.1-.07c-7.84-.39-16.97-4.07-24.18-4.07l2,2Z" fill="#79859A"/>
<path d="M214,401h-2c1.94,3.88,6.13,4.35,10,5l-2-2c-2-1-4-2-6-3Z" fill="#B7BFCD"/>
<g fill="#FDD3CD">
<path d="M132,419c4.4-5.05,11-4.01,14-10c-7.39,1-11.37,7.79-18,10c0,.67,0,1.33,0,2c1-1,1-1,4-2Z"/>
<path d="M628,425c10.24-6.26,81.07-6.14,96.56-5.02c9.89,.72,24.13,4.87,33.44,2.02c-46.31-10.58-105.63-3.38-152,4c0,.33,0,.67,0,1h8c4.32-2.16,4.32-2.16,14-2Z"/>
<path d="M816,433c-4.82-4.82-13.57-3.08-20-3c3.9,2.6,7.47,2.15,12,2c0,.33,0,.67,0,1h8Z"/>
<path d="M146,423c4.53,0,11.18-6.29,14-10c-4.54,1.51-10.6,6.6-14,10Z"/>
</g>
<g fill="#F9978B">
<path d="M110,436c3.04-1.52,19.78-14.54,22-17c-3,1-3,1-4,2c-4.99,1.66-15.69,10.38-18,15Z"/>
<path d="M112,459c5.09-2.54,8.71-13.2,12.17-17.81c4.55-6.06,18.7-11.93,21.83-18.19c-14.62,4.87-27.63,23.25-34,36Z"/>
<path d="M546,443c13.73-4.01,32.63-4.86,45-12c-15.58,1.26-32.44,9.63-45,11c0,.33,0,.67,0,1Z"/>
</g>
<g fill="#FDD3CD">
<path d="M816,433c0,.67,0,1.33,0,2c10.68-.18,21.08,2.72,31.69,3.13c22.76,.88,45.7-1.4,67.31-8.13c5.01-1.56,13.17-2.17,17-6c-7.59,.73-12.41,4.03-19.54,5.97c-11.52,3.13-25.14,4.8-37.01,5.97c-20.22,2-39.62-2.94-59.45-2.94Z"/>
<path d="M810,451c-3.53-3.53-20.65-3.08-26-3c12.15,7.48,73.27,8.09,90,8c.33-.67,.67-1.33,1-2c10.9,.24,18.62-.31,28-5c-7.43,1-7.43,1-11,2h-4c-12.29,6.14-64.22,3.67-78,0Z"/>
</g>
<g fill="#F9978B">
<path d="M614,427h-8c-4.66,2.87-11.52,.52-15,4c6.29,0,17.58-.75,23-4Z"/>
<path d="M118,522c-4.01-4.01-8.13-7.04-14-9c2.92,3.93,9.89,6.78,11,9c1,0,2,0,3,0Z"/>
<path d="M796,430c-3.43-2.29-3.43-2.29-12-2c6.58,3.66,16.53,5,24,5c0-.33,0-.67,0-1c-4.53,.15-8.1,.6-12-2Z"/>
<path d="M137,529c-3.96-3.96-13.52-6.37-19-7c1.84,3.69,14.61,6.23,19,7Z"/>
</g>
<path d="M90,463c4.33-2.89,5.18-6.09,6-11c3.78-1.26,6.82-7.23,9-11c-5.4,1.8-14.1,15.71-15,22Z" fill="#FDD3CD"/>
<g fill="#F9978B">
<path d="M510,455c4.66,0,33.3-9.51,36-12c-12.01,1.91-22.33,7.41-34,10l-2,2Z"/>
<path d="M585,456c6.38-1.24,11.45-2.13,18-2c3.41-6.83,35.21-5.74,42-10c-9.6-.18-54.28,6.28-60,12Z"/>
<path d="M360,525c3.2-3.2,7.79-2.87,12-4c-14.17-.47-46.34,6.45-60,11c-25.4-.49-52,4.94-77.56,6.08c-22.25,1-44.38-2.08-66.44-2.08c28.49,9.5,114.35,4.3,144-4c6.59-2.03,13.41,.03,20-2c9.62-2.06,17.76-5.23,28-5Z"/>
<path d="M903,449c0-.33,0-.67,0-1c3.34-.56,6.03-1.35,9-3c-7.62-.42-13.63,3.03-20,6c3.57-1,3.57-1,11-2Z"/>
<path d="M888,451c-25.69-.44-52.19-.18-78,0c13.78,3.67,65.71,6.14,78,0Z"/>
<path d="M110,464c.33,0,.67,0,1,0c.33-1.67,.67-3.33,1-5c-3.28,3.28-4.25,6.48-5,11c1-2,2-4,3-6Z"/>
</g>
<path d="M540,470c8.06-2.17,26.26-4.9,32-10c-8.57,1-8.57,1-12,2c-6.04,3.36-13.52,4.76-20,8Z" fill="#FDD3CD"/>
<g fill="#F9978B">
<path d="M540,470c6.48-3.24,13.96-4.64,20-8c-14.86,2.36-34.08,9.04-48,16c4.58,0,9.17-2.44,14-3c4.79-2.4,8.61-4.26,14-5Z"/>
<path d="M397,490c11.35,.54,34.91-8.57,45-14c-15.01,1.73-29.82,10.47-45,13c0,.33,0,.67,0,1Z"/>
</g>
<g fill="#FDD3CD">
<path d="M94,504c0-2.27-4.49-10.45-5.38-13.6c-2.41-8.6,.14-18.73,1.38-27.4c-8.24,8.24-4,33.73,4,41Z"/>
<path d="M109,486c0-3.6-1.32-6.9-1.15-10.47c.2-4.21,2.4-6.96,2.15-11.53c-1,2-2,4-3,6c-.14,5.58-1.22,11.17,2,16Z"/>
<path d="M462,469c4.52-.72,8.69-.69,12-4c-9.04,1.04-9.04,1.04-12,4Z"/>
<path d="M476,492c6.33,0,43.12-13.3,50-17c-4.83,.56-9.42,3-14,3c-3.9,3.74-11.23,2.46-13,6c-5.15-.29-8.19,1.97-13,3c-3.23,1.74-6.51,2.89-10,4c0,.33,0,.67,0,1Z"/>
<path d="M148,509c-7.54-1.62-13.49-6.33-21-6c1.05,1.05,1.45,2,3,2c6.44,1.07,11.15,4,18,4Z"/>
<path d="M417,510h-4c-9.24,2.05-17.62,6.44-27,8c-3.31,1.13-6.59,2.21-10,3c13.59,.62,26.95-9.59,40-9c.33-.67,.67-1.33,1-2Z"/>
</g>
<g fill="#F9978B">
<path d="M118,498c-3.44-3.44-1.69-5.94-7-8c.81,2.44,4.26,8,7,8Z"/>
<path d="M362,499c9.06,0,24.91-4.64,33-9c-4.86,.65-9.35,1.45-14,3c-5.81,3.27-12.65,2.82-19,6Z"/>
<path d="M296,511c8.11,0,42.85-5.21,49-9l-9,1c-9.06-.17-31.09,4.26-40,7v1Z"/>
<path d="M417,510c3.34-.56,6.03-1.35,9-3c-6.86-.25-7.21,.11-13,3h4Z"/>
<path d="M386,518c9.38-1.56,17.76-5.95,27-8c-7.04-.32-21.18,4.12-27,8Z"/>
</g>
<path d="M332,530c6.51,.15,22.64-1.83,28-5c-10.24-.23-18.38,2.94-28,5Z" fill="#FDD3CD"/>
<path d="M168,536c0-.33,0-.67,0-1c-7.38,.39-15.92-4.17-25-4c5.73,3.4,18.19,5,25,5Z" fill="#F9978B"/>
</svg>
